<?xml version="1.0" standalone="no"?>
<!DOCTYPE svg PUBLIC "-//W3C//DTD SVG 20010904//EN"
 "http://www.w3.org/TR/2001/REC-SVG-20010904/DTD/svg10.dtd">
<svg version="1.0" xmlns="http://www.w3.org/2000/svg"
 width="225.000000pt" height="225.000000pt" viewBox="0 0 225.000000 225.000000"
 preserveAspectRatio="xMidYMid meet">

<g transform="translate(0.000000,225.000000) scale(0.100000,-0.100000)"
fill="#000000" stroke="none">
<path d="M1075 2086 c-99 -34 -157 -70 -233 -142 -36 -35 -69 -61 -73 -59 -3
3 -3 24 1 47 5 24 7 44 5 46 -7 8 -79 -90 -106 -143 -44 -91 -62 -198 -57
-335 4 -92 9 -123 26 -156 11 -23 26 -63 33 -90 14 -60 29 -79 29 -38 0 46 28
119 56 144 29 28 30 45 4 88 -27 45 -27 120 1 156 46 59 196 113 343 123 179
13 382 -62 431 -158 20 -38 19 -63 -7 -136 l-22 -61 23 -50 c14 -30 24 -70 24
-105 2 -65 11 -62 26 9 5 28 25 75 43 104 32 51 33 57 32 149 0 53 -8 125 -16
160 -19 78 -10 119 34 156 34 29 34 29 -27 62 -39 21 -121 43 -163 43 -46 0
-32 16 42 50 l61 28 -30 12 c-107 43 -219 52 -330 25 -95 -23 -98 -22 -74 23
11 20 30 45 42 54 22 17 22 18 -13 18 -19 0 -66 -11 -105 -24z"/>
<path d="M1510 1000 c0 -7 -20 -47 -44 -90 -41 -73 -44 -84 -48 -167 -6 -157
-78 -264 -230 -343 l-64 -33 -60 40 c-126 86 -182 174 -191 300 -5 65 -11 84
-33 113 -15 19 -43 63 -62 98 l-35 63 -42 -46 c-62 -68 -85 -125 -86 -215 0
-41 2 -86 5 -100 4 -20 -1 -28 -25 -40 -115 -58 -214 -140 -247 -204 l-21 -41
49 -43 c123 -109 296 -204 442 -241 44 -12 84 -21 89 -21 4 0 8 66 7 148 0
174 1 184 30 180 20 -3 21 -8 24 -174 l2 -171 79 -7 c44 -3 111 -3 150 0 l71
7 2 116 c0 64 0 127 -1 141 -1 13 0 39 4 58 5 27 10 33 28 30 25 -3 25 -2 26
-210 l1 -126 53 15 c28 8 69 19 91 24 100 25 285 131 395 227 l45 39 -29 49
c-35 61 -99 123 -176 171 -33 19 -59 37 -59 39 0 2 7 22 16 44 42 104 -37 308
-143 373 -8 5 -13 3 -13 -3z"/>
</g>
</svg>
